<svg width="14" height="14" viewBox="0 0 14 14" fill="none" xmlns="http://www.w3.org/2000/svg">
<path d="M13.7076 12.2903C14.0975 12.6802 14.0975 13.3201 13.7076 13.7101C13.5077 13.9 13.2578 14 12.9979 14C12.738 14 12.488 13.9 12.2881 13.7101L7 8.421L1.71189 13.7101C1.51196 13.9 1.26205 14 1.00214 14C0.742235 14 0.492324 13.9 0.292396 13.7101C-0.0974652 13.3201 -0.0974652 12.6802 0.292396 12.2903L5.58051 7.00125L0.292396 1.71219C-0.0974652 1.32226 -0.0974652 0.682378 0.292396 0.292448C0.682256 -0.0974826 1.32203 -0.0974826 1.71189 0.292448L7 5.5815L12.2881 0.292448C12.678 -0.0974826 13.3177 -0.0974826 13.7076 0.292448C14.0975 0.682378 14.0975 1.32226 13.7076 1.71219L8.41949 7.00125L13.7076 12.2903Z" fill="#BFBFBF"/>
</svg>
