<svg width="27" height="27" viewBox="0 0 27 27" fill="none" xmlns="http://www.w3.org/2000/svg">
<path fill-rule="evenodd" clip-rule="evenodd" d="M1.33333 16C2.06667 16 2.66667 16.6 2.66667 17.3333L2.66667 22.6667C2.66667 23.0267 2.81333 23.36 3.05333 23.6133C3.30667 23.8533 3.64 24 4 24H22.6667C23.0267 24 23.36 23.8533 23.6133 23.6133C23.8667 23.3733 24 23.0267 24 22.6667V17.3333C24 16.6 24.6 16 25.3333 16C26.0667 16 26.6667 16.6 26.6667 17.3333V22.6667C26.6667 23.7333 26.24 24.7467 25.4933 25.4933C24.7467 26.24 23.7333 26.6667 22.6667 26.6667H4C2.93333 26.6667 1.92 26.24 1.17333 25.4933C0.426667 24.7467 0 23.7333 0 22.6667L0 17.3333C0 16.6 0.6 16 1.33333 16Z" fill="#F7FBF5"/>
<path fill-rule="evenodd" clip-rule="evenodd" d="M20.9467 11.6133L14.28 18.28C14.16 18.4 14.0133 18.4933 13.8533 18.56C13.7867 18.5867 13.7333 18.6133 13.6667 18.6133C13.56 18.6533 13.4533 18.6667 13.3333 18.6667C13.2133 18.6667 13.1067 18.6533 13 18.6133C12.9333 18.6133 12.88 18.5867 12.8133 18.56C12.6533 18.4933 12.5067 18.4 12.3867 18.28L5.72 11.6133C5.2 11.0933 5.2 10.24 5.72 9.72C6.24 9.2 7.09333 9.2 7.61333 9.72L12 14.12V1.33333C12 0.6 12.6 0 13.3333 0C14.0667 0 14.6667 0.6 14.6667 1.33333V14.12L19.0533 9.72C19.5733 9.2 20.4267 9.2 20.9467 9.72C21.4667 10.24 21.4667 11.0933 20.9467 11.6133Z" fill="#F7FBF5"/>
</svg>
