<svg width="28" height="18" viewBox="0 0 28 18" fill="none" xmlns="http://www.w3.org/2000/svg">
<path d="M0 0V18H28V0H0ZM4.11044 17.7034V0.243209H26.6968V17.7034H4.11044Z" fill="black"/>
<path d="M4.11044 17.7034V0.243209H26.6968V17.7034H4.11044Z" fill="#69B42E"/>
<path d="M0.566969 16.006C0.566969 14.7836 1.43159 14.4858 2.10064 14.4858C2.70451 14.4858 3.60798 14.7411 3.60798 16.006V17.6647H0.566969V16.006ZM2.84805 16.5071V16.274C2.84805 16.0149 2.76969 15.7038 2.08352 15.7038C1.37957 15.7038 1.28409 15.9933 1.28409 16.274V16.5071H2.84805Z" fill="white"/>
<path d="M1.33219 13.1206H1.84913V13.1034C1.56201 13.0171 1.28017 12.7834 1.28017 12.4208C1.28017 12.365 1.28874 12.3001 1.3019 12.2436H2.21459C2.19682 12.3128 2.1797 12.3903 2.1797 12.4684C2.1797 12.7922 2.38844 13.0513 2.78355 13.0513H3.60867V14.1397H1.33219V13.1206Z" fill="white"/>
<path d="M2.77229 12.3427V11.401H3.61058V12.3427H2.77229Z" fill="white"/>
<path d="M2.51352 9.95501V9.93791L0.57618 9.45849V8.34849L2.51352 7.88177V7.86458L0.57618 7.49758V6.46501L3.60863 7.19082V8.43487L1.62717 8.93587V8.95296L3.60863 9.42796V10.698L0.57618 11.4016V10.3176L2.51352 9.95501Z" fill="white"/>
<path d="M0.566969 3.67925H1.28409V5.16073H1.72266V3.74402H2.41804V5.16073H2.89152V3.6494H3.60864V6.31835H0.566969V3.67925Z" fill="white"/>
<path d="M0.566969 1.4764C0.566969 0.530867 1.07534 0.357511 1.35784 0.357511C1.70554 0.357511 1.98804 0.595005 2.05718 0.970929H2.0743C2.11777 0.668667 2.31795 0.288295 2.79537 0.288295C3.56452 0.288295 3.60798 1.15191 3.60798 1.53672V3.29443H0.566969V1.4764ZM1.77073 2.19777V1.92598C1.77073 1.52847 1.56198 1.48974 1.47506 1.48974C1.34928 1.48974 1.184 1.58054 1.184 1.89995V2.19777H1.77073ZM2.99161 2.19777V1.9044C2.99161 1.53291 2.78748 1.47195 2.67882 1.47195C2.37063 1.47195 2.37063 1.83073 2.37063 1.9298V2.19777H2.99161Z" fill="white"/>
<path d="M10.6344 8.08682L15.406 5.46173L20.1717 8.08811C20.1717 8.08811 20.8124 10.3539 18.2837 12.2519C15.7662 14.1411 15.0569 14.1251 12.5144 12.2519C9.96534 10.3735 10.6344 8.08682 10.6344 8.08682Z" fill="black"/>
<path d="M15.3849 4.45777L18.6748 6.23516C18.7564 6.01925 18.7993 5.79511 18.7993 5.56139C18.7993 4.16693 17.2762 3.03535 15.4 3.03535C13.522 3.03535 12.0001 4.1663 12.0001 5.56139C12.0001 5.78939 12.0416 6.01035 12.1166 6.22054L15.3849 4.45777Z" fill="black"/>
<path d="M21.1252 9.60201L23.7585 11.1349L18.8243 16.9198L21.1252 9.60201Z" fill="black"/>
<path d="M21.2633 8.12558L20.967 6.85558L26.0396 8.30149L22.8939 9.92968L23.3265 8.60758L21.2633 8.12558Z" fill="black"/>
<path d="M20.6721 6.03639L20.003 5.13978L24.4994 3.74911L23.3806 7.17244L22.9177 5.59697L20.6721 6.03639Z" fill="black"/>
<path d="M19.4348 4.44442L18.4898 3.48047L19.7291 2.25364L18.3726 1.43955H21.9713L19.4348 4.44442Z" fill="black"/>
<path d="M9.67362 9.60201L7.04019 11.1349L11.9744 16.9198L9.67362 9.60201Z" fill="black"/>
<path d="M9.53599 8.12558L9.83163 6.85558L4.75977 8.30149L7.90482 9.92968L7.47221 8.60758L9.53599 8.12558Z" fill="black"/>
<path d="M10.1267 6.03639L10.7957 5.13978L6.30007 3.74911L7.41888 7.17244L7.88182 5.59697L10.1267 6.03639Z" fill="black"/>
<path d="M11.3646 4.44443L12.309 3.48049L11.0697 2.25365L12.4262 1.43957H8.82813L11.3646 4.44443Z" fill="black"/>
<path d="M14.0006 11.3978H16.8065L17.0225 10.7647H13.7847L14.0006 11.3978ZM14.7381 13.5555C15.1952 13.6946 15.6153 13.6965 16.0697 13.5606L16.2211 13.1161H14.588L14.7381 13.5555ZM14.4023 12.5738H16.4061L16.6222 11.9408H14.1863L14.4023 12.5738ZM13.599 10.2224H17.2076L17.4236 9.5893H13.3829L13.599 10.2224ZM17.1391 6.41739L16.7479 8.09253H16.7275L16.1046 6.40344H14.7474L14.158 8.09253H14.1363L13.6766 6.41487L12.5163 7.05368L13.1972 9.04701H14.7941L15.3954 7.31977H15.4171L16.0196 9.04701H17.608L18.2882 7.05177L17.1391 6.41739Z" fill="white"/>
</svg>
