<svg width="24" height="24" viewBox="0 0 24 24" fill="none" xmlns="http://www.w3.org/2000/svg">
<g clip-path="url(#clip0_4316_314)">
<path d="M0 0L24 0L24 24L0 24L0 0Z" fill="#629FBC"/>
<path d="M5.05838 10.6808C5.10043 10.7436 5.14236 10.8065 5.18455 10.8692C4.93222 10.8614 4.66675 10.8369 4.61532 10.7289C4.61638 10.7235 4.61746 10.718 4.6188 10.7127C4.7605 10.6756 4.8821 10.6733 5.05838 10.6808ZM6.40478 11.253C6.4249 11.3151 6.44558 11.377 6.4657 11.4389C6.41789 11.4409 6.37044 11.443 6.32302 11.4449C6.33439 11.3817 6.34596 11.3184 6.35698 11.2552C6.3731 11.2544 6.38866 11.2538 6.40478 11.253ZM6.89222 12.6101C6.76577 12.7267 6.66751 12.8045 6.59242 12.9801C6.48761 12.8949 6.43378 12.7251 6.4001 12.5352C6.3636 12.329 6.35086 12.099 6.32302 11.9271C6.32604 11.8979 6.32897 11.8687 6.3319 11.8394C6.3809 11.8357 6.42994 11.8321 6.4787 11.8287C6.60305 12.0642 6.72787 12.2995 6.8527 12.5352C6.86592 12.5601 6.8789 12.585 6.89222 12.6101ZM6.70248 10.8692C6.71844 10.7632 6.73457 10.6575 6.75125 10.5517C6.75468 10.5305 6.7577 10.5092 6.76056 10.4881C6.77669 10.4873 6.79262 10.4865 6.80837 10.4855C6.7727 10.6135 6.7374 10.7412 6.70248 10.8692ZM6.60067 9.1422C6.82428 9.20275 7.04789 9.26345 7.27171 9.32412C7.27066 9.3342 7.26982 9.34426 7.26895 9.35422C6.95647 9.58351 6.6677 9.68534 6.51276 10.1017C6.53222 9.79255 6.55202 9.48341 6.57139 9.17429C6.58109 9.16346 6.59076 9.1529 6.60067 9.1422ZM7.22743 8.18273C7.18344 8.61384 7.24493 8.80493 7.32029 9.07236C7.43995 9.15768 7.48704 9.20844 7.44806 9.3341C7.24656 9.2347 7.03375 9.13041 6.72552 9.14654C6.7177 9.13802 6.70999 9.1295 6.70248 9.12108C6.78948 8.78074 6.95767 8.57194 7.08823 8.30234C7.1347 8.26236 7.18097 8.2225 7.22743 8.18273ZM8.19132 7.60908C8.20107 7.6085 8.21093 7.60771 8.22043 7.60704C8.12806 7.92502 8.09081 8.65898 7.92878 8.9503C7.54673 8.76955 7.55402 7.98696 7.98206 7.67779C8.05193 7.65478 8.12155 7.63188 8.19132 7.60908ZM7.83492 9.96571C7.94234 10.082 8.04953 10.1983 8.15702 10.3148C8.03078 10.7032 7.79093 10.9958 7.69003 11.4449C7.62629 11.4402 7.5631 11.4354 7.49938 11.4309C7.33716 10.9777 7.74384 10.24 7.81286 9.90977C7.91222 9.92134 8.01146 9.93264 8.11104 9.9443C8.14754 10.0373 8.18405 10.1303 8.22043 10.2234C8.09208 10.1375 7.96339 10.0515 7.83492 9.96571ZM8.71603 7.60704C8.68366 7.98374 8.76674 8.17882 8.78966 8.47133C8.60004 8.56699 8.40996 8.66287 8.22043 8.75842C8.26812 8.27786 8.36544 7.96126 8.49826 7.62317C8.57093 7.61772 8.6436 7.61239 8.71603 7.60704ZM8.93726 7.03406C8.95138 7.03301 8.96566 7.03226 8.97941 7.03135C8.9586 7.09267 8.93726 7.15399 8.91528 7.21514C8.87381 7.21786 8.83147 7.22054 8.78966 7.22326C8.82158 7.18538 8.85415 7.14722 8.88689 7.10921C8.90386 7.0841 8.92049 7.05917 8.93726 7.03406ZM8.97941 8.79245C8.78993 8.90894 8.59999 9.0257 8.41018 9.1422C8.4217 8.93026 8.69191 8.64578 8.91758 8.56651C8.93498 8.57592 8.95171 8.58533 8.9693 8.59474C8.97257 8.66059 8.97593 8.72659 8.97941 8.79245ZM9.3589 7.46995C9.3246 7.66457 9.29028 7.85916 9.25637 8.05375C9.22075 8.07612 9.18501 8.09822 9.14981 8.12047C9.13106 8.14138 9.11244 8.16206 9.09353 8.18273C8.99028 8.03801 8.96479 7.68379 8.98666 7.41516C9.11093 7.43354 9.23491 7.45181 9.3589 7.46995ZM9.73838 7.0319C9.73757 7.03831 9.73687 7.04458 9.73606 7.05082C9.68736 7.09709 9.63898 7.14346 9.59057 7.1898C9.49402 7.22686 9.4819 7.2253 9.3589 7.22122C9.37558 7.1579 9.39317 7.09459 9.41054 7.03135C9.51972 7.03152 9.62921 7.03166 9.73838 7.0319ZM10.1179 6.26378C10.0614 6.39158 10.005 6.51953 9.9485 6.64757C9.7519 6.63341 9.55541 6.61927 9.3589 6.60497C9.35998 6.59467 9.36074 6.58438 9.36182 6.57396C9.60425 6.46212 9.8166 6.32981 10.1179 6.26378ZM9.81134 7.25983C9.83225 7.24759 9.85306 7.2355 9.87396 7.22326C9.89196 7.28731 9.91013 7.35118 9.92813 7.41516C9.86489 7.40285 9.80148 7.39054 9.73838 7.37815C9.76258 7.33872 9.78684 7.29922 9.81134 7.25983ZM10.3076 7.82767C10.0816 7.91534 9.76918 7.89122 9.58848 7.99082C9.57533 7.91388 9.5622 7.83718 9.54864 7.76023C9.58848 7.70921 9.62753 7.65806 9.66682 7.60704C9.85824 7.6818 10.0495 7.75706 10.2406 7.83194C10.263 7.8306 10.2852 7.82914 10.3076 7.82767ZM9.82234 8.17294C9.73639 8.17615 9.65018 8.17944 9.56462 8.18273C9.55882 8.15563 9.55418 8.12854 9.54864 8.10146C9.72996 8.02785 10.0344 8.02073 10.3076 7.99082C10.2115 8.04358 10.1158 8.09633 10.0195 8.14913C9.95378 8.157 9.88831 8.16494 9.82234 8.17294ZM10.4974 8.17289C10.28 8.22677 10.0718 8.41769 9.92976 8.56651C9.90194 8.39321 10.2367 8.08644 10.397 7.99082C10.4682 8.05399 10.4757 8.04737 10.4974 8.17289ZM10.8768 5.88C10.876 5.8903 10.875 5.90021 10.874 5.91038C10.798 5.95598 10.7219 6.00168 10.646 6.04728C10.5332 6.05544 10.4204 6.06372 10.3076 6.07188C10.309 6.06197 10.3099 6.05167 10.3109 6.04176C10.4998 5.98776 10.6886 5.93388 10.8768 5.88ZM10.5699 6.45569C10.5457 6.41983 10.5217 6.38398 10.4974 6.34812C10.6683 6.20414 11.0466 6.28351 11.2563 6.3047C11.0274 6.35503 10.7989 6.40546 10.5699 6.45569ZM12.2679 5.89051C12.5852 5.91636 12.8749 5.99134 13.095 6.1284C13.1145 6.1271 13.1342 6.12612 13.1538 6.12494C13.1421 6.14148 13.1302 6.15782 13.1185 6.17436C13.0173 6.20417 12.9162 6.23398 12.8152 6.26378C12.633 6.23774 12.4503 6.21158 12.2679 6.18545C11.8676 6.12821 11.4669 6.07087 11.0666 6.01361C11.0674 6.00559 11.0687 5.99777 11.0696 5.98985C11.4581 5.90002 11.883 5.85902 12.2679 5.89051ZM13.5302 5.7893C13.5076 5.81954 13.4853 5.84988 13.4629 5.88C13.2584 5.86543 13.0893 5.78537 12.964 5.6881C13.1538 5.71212 13.3433 5.73638 13.5333 5.7605C13.5323 5.7702 13.5312 5.77975 13.5302 5.7893ZM14.5408 6.4987C14.593 6.4787 14.6458 6.45874 14.6983 6.43886C14.7527 6.48566 14.8068 6.53278 14.8615 6.57958C14.8395 6.73901 14.6846 6.87014 14.5662 7.02578C14.5359 7.02758 14.5057 7.02948 14.4753 7.03135C14.2276 6.62299 13.9154 6.1753 13.3675 6.01807C13.3595 6.00178 13.3516 5.98548 13.3435 5.96918C13.4175 5.93952 13.4911 5.90966 13.565 5.88C13.9369 6.00946 14.247 6.20602 14.5927 6.31949C14.637 6.42677 14.6232 6.39058 14.5408 6.4987ZM14.9988 7.40825C14.9844 7.39423 14.9702 7.37983 14.9558 7.36565C14.9241 7.36757 14.893 7.37026 14.8615 7.37256C14.9135 7.32286 14.9658 7.27296 15.0186 7.22326C15.0114 7.28486 15.0055 7.34683 14.9988 7.40825ZM15.1661 9.52598C15.4229 9.7477 15.4885 10.0684 15.3815 10.4855C15.2713 10.2383 15.1618 9.99103 15.0512 9.74383C15.0877 9.68897 15.1234 9.63398 15.1595 9.57888C15.1618 9.56129 15.1636 9.54348 15.1661 9.52598ZM15.241 7.80113C15.2397 7.81301 15.2391 7.82489 15.2378 7.83679C15.193 7.88803 15.148 7.93944 15.1029 7.99082C15.0856 7.95682 15.0686 7.92264 15.0512 7.88863C15.1319 7.74394 15.0739 7.82162 15.1799 7.80634C15.2001 7.80454 15.2205 7.80262 15.241 7.80113ZM15.3987 7.79894C15.599 7.87291 15.8001 7.94702 15.9999 8.02102C15.9987 8.04101 15.9964 8.06112 15.9946 8.08113C15.9439 8.11512 15.8934 8.14898 15.8428 8.18273C15.642 8.10874 15.4417 8.03465 15.241 7.96078C15.2429 7.94066 15.2447 7.92053 15.2466 7.90054C15.2972 7.86655 15.3478 7.83269 15.3987 7.79894ZM16.5692 8.56651C16.4581 8.49264 16.3471 8.41915 16.236 8.34569C16.2204 8.3159 16.2052 8.28598 16.1897 8.25634C16.3342 8.1679 16.3134 8.17231 16.4663 8.20169C16.5002 8.3233 16.5346 8.44478 16.5692 8.56651ZM16.7589 8.49358C16.7368 8.51789 16.7146 8.5421 16.6922 8.56651C16.6109 8.52511 16.5967 8.47207 16.5692 8.37463C16.6272 8.39959 16.6849 8.42477 16.743 8.44992C16.7485 8.46446 16.7537 8.47901 16.7589 8.49358ZM16.6172 7.94477C16.6005 7.94592 16.5853 7.94688 16.5692 7.94822C16.6212 7.89854 16.6739 7.84884 16.727 7.79894C16.6902 7.84769 16.6528 7.89605 16.6172 7.94477ZM17.5179 8.91C17.4868 8.92349 17.4558 8.93695 17.4254 8.9503C17.2554 8.8554 17.0862 8.76065 16.9174 8.66563C16.8645 8.59414 16.8116 8.5224 16.7589 8.45064C17.022 8.2565 17.0313 8.48114 17.2795 8.60366C17.3586 8.70593 17.4383 8.80817 17.5179 8.91ZM17.7076 9.07886C17.6444 9.05604 17.5813 9.03322 17.5179 9.01037C17.5559 8.99059 17.5942 8.97046 17.6323 8.9503C17.6574 8.99328 17.6825 9.03607 17.7076 9.07886ZM17.4768 9.38827C17.5454 9.52644 17.5448 9.4871 17.7076 9.46692C17.6107 9.55056 17.5134 9.63422 17.4159 9.71789C17.3235 9.54149 17.231 9.36494 17.1384 9.18883C17.1393 9.1777 17.1405 9.16687 17.1419 9.15574C17.3465 9.11196 17.4127 9.18583 17.6125 9.21526C17.6382 9.25634 17.6642 9.29757 17.69 9.33878C17.6193 9.35546 17.5481 9.37186 17.4768 9.38827ZM17.5179 9.73255C17.6443 9.6635 17.7707 9.59494 17.8974 9.52598C17.8212 9.69655 17.7227 9.78468 17.6052 9.90977C17.5763 9.85065 17.5472 9.79157 17.5179 9.73255ZM18.2768 10.4649C18.1741 10.5536 18.1074 10.5822 17.9125 10.598C17.9646 10.6037 18.0171 10.6096 18.069 10.6153C18.0678 10.6248 18.0669 10.6338 18.0659 10.6431C17.8879 10.7184 17.7098 10.7937 17.5314 10.8692C17.5266 10.641 17.5225 10.4129 17.5179 10.1848C17.6405 10.0398 17.7639 9.89491 17.8865 9.74974C17.9094 9.7392 17.9313 9.72866 17.9538 9.71789C18.0613 9.96696 18.1695 10.2162 18.2768 10.4649ZM18.0871 9.41551C19.1348 9.12362 18.9323 9.67858 18.4648 10.1017C18.3388 9.87302 18.2125 9.64404 18.0871 9.41551ZM19.0358 9.52598C18.6498 11.3361 18.5753 11.4348 17.2103 12.2125C17.1866 12.1765 17.1624 12.1407 17.1384 12.1047C17.1547 12.0374 17.1706 11.9701 17.1866 11.9028C18.0769 11.6492 18.5833 11.1844 18.5305 10.1305C18.6794 9.93982 18.828 9.7493 18.9766 9.55865C18.9965 9.54775 19.0162 9.537 19.0358 9.52598ZM19.0823 9.52598C19.0671 9.46354 19.0516 9.4009 19.0358 9.33838C19.0835 9.33686 19.1309 9.33545 19.1779 9.3341C19.1461 9.39814 19.1142 9.4621 19.0823 9.52598ZM16.7589 11.2861C16.7631 11.2195 16.7677 11.1528 16.7723 11.0862C16.776 11.0291 16.7797 10.9719 16.7837 10.9147C16.8275 10.9003 16.8716 10.8857 16.9155 10.8714C16.9218 10.8708 16.928 10.87 16.9341 10.8692C16.9711 11.0956 16.9344 11.2635 16.8586 11.4449C16.795 11.4044 16.7826 11.3871 16.7589 11.2861ZM15.9999 12.9652C16.0011 12.9541 16.0019 12.9431 16.0029 12.932C16.086 12.7338 16.169 12.5358 16.2518 12.3378C16.2689 12.296 16.2867 12.2541 16.3044 12.2125C16.45 12.2223 16.5967 12.2321 16.7424 12.2419C16.749 12.275 16.7535 12.3067 16.7559 12.3378C16.7752 12.5635 16.6969 12.7442 16.616 12.9801C16.4107 12.975 16.2055 12.9703 15.9999 12.9652ZM16.1897 13.7356C16.1912 13.6366 16.1932 13.5375 16.1951 13.4387C16.1976 13.4137 16.2 13.3887 16.2023 13.3639C16.3092 13.3717 16.4158 13.3798 16.5224 13.3877L16.5692 13.3841C16.4958 13.5052 16.4227 13.6264 16.3499 13.7477C16.2962 13.7436 16.2431 13.7396 16.1897 13.7356ZM16.0018 12.4938C16.0082 12.4905 16.0147 12.4872 16.0212 12.4838C16.0718 12.4579 16.1224 12.4319 16.173 12.4061C16.1785 12.4055 16.184 12.405 16.1897 12.4044C16.1818 12.4308 16.1744 12.4572 16.1668 12.4839C16.1376 12.5853 16.1083 12.6869 16.079 12.7882C16.053 12.698 16.0261 12.6077 15.9999 12.5173C16.0005 12.5094 16.0009 12.5016 16.0018 12.4938ZM15.7058 13.4493C15.6774 13.4207 15.6483 13.3921 15.6204 13.3639C15.7039 13.4218 15.6495 13.3652 15.7058 13.4493ZM15.241 13.221C15.3474 13.1537 15.4628 13.1745 15.6204 13.1768C15.6047 13.2278 15.5894 13.2791 15.5738 13.3301C15.4441 13.3817 15.4257 13.3627 15.2781 13.3476C15.2658 13.3055 15.2537 13.2632 15.241 13.221ZM15.4733 13.9396C15.5225 14.0548 15.5716 14.1702 15.6204 14.2854C15.5069 14.3621 15.3932 14.4386 15.2795 14.5152C15.178 14.3769 15.289 13.9875 15.4733 13.9396ZM15.0988 12.7352C15.0833 12.7364 15.0675 12.7373 15.0512 12.7387C15.0723 12.6911 15.0928 12.6437 15.1134 12.5963C15.1091 12.6424 15.1038 12.6888 15.0988 12.7352ZM15.6451 12.7882C15.6372 12.7829 15.6287 12.7777 15.6204 12.7723C15.6485 12.7141 15.6757 12.6557 15.7038 12.5974C15.7126 12.597 15.7223 12.5967 15.7314 12.5963C15.7574 12.6577 15.7841 12.7191 15.8102 12.7806C15.7552 12.7831 15.7002 12.7857 15.6451 12.7882ZM16.959 10.2936C16.9558 10.272 16.9522 10.2502 16.9487 10.2286C16.9986 10.168 17.0305 10.1302 17.1163 10.1017C17.1238 10.1394 17.1313 10.1773 17.1384 10.2152C17.1017 10.2396 17.0647 10.264 17.028 10.2887C17.0049 10.2903 16.982 10.292 16.959 10.2936ZM16.9487 10.7622C16.9144 10.8073 16.8536 10.8328 16.8102 10.8692C16.793 10.5495 16.7757 10.2297 16.7589 9.90977C16.8221 10.1941 16.8853 10.4782 16.9487 10.7622ZM16.6005 12.0482C16.7261 11.9787 16.7437 12.043 16.7589 12.2125C16.632 12.2123 16.5061 12.2118 16.3794 12.2115C16.3815 12.1917 16.3836 12.172 16.3855 12.1524C16.4572 12.1176 16.5288 12.083 16.6005 12.0482ZM16.4144 11.5178C16.4427 11.4936 16.4712 11.4691 16.5002 11.4449C16.523 11.4863 16.5463 11.5276 16.5692 11.5688C16.5584 11.5915 16.548 11.6141 16.5369 11.6368C16.4845 11.6308 16.4321 11.6247 16.3794 11.6186C16.3913 11.585 16.4028 11.5514 16.4144 11.5178ZM16.3794 12.0268C16.3137 12.0886 16.2476 12.1507 16.1816 12.2125C16.1387 12.2054 16.0956 12.1984 16.0527 12.1912C16.0347 12.193 16.0173 12.1946 15.9999 12.1963C16.0309 12.1376 16.0614 12.0791 16.0924 12.0206C16.188 12.0227 16.2838 12.0248 16.3794 12.0268ZM15.6633 11.9178C15.5844 11.8627 15.6417 11.8702 15.6265 11.8287C15.6386 11.8583 15.6511 11.888 15.6633 11.9178ZM16.2618 11.0611C16.0482 10.9507 15.8344 10.8401 15.6204 10.7295C15.6503 10.2908 15.7042 9.7866 15.6606 9.3341C16.1552 9.51329 16.5982 10.315 16.2618 11.0611ZM15.8102 11.0611C15.968 11.1438 15.9589 11.2203 16.1777 11.2869C16.216 11.4291 16.1578 11.4852 16.0669 11.6368C15.9896 11.6337 15.912 11.6305 15.8345 11.6273C15.7864 11.3748 15.8384 11.2295 15.8102 11.0611ZM15.8536 12.3015C15.7741 12.2467 15.831 12.254 15.8164 12.2125C15.8286 12.2424 15.8407 12.2722 15.8536 12.3015ZM17.1384 10.4546C17.139 10.4428 17.1396 10.431 17.1403 10.4194C17.1973 10.3773 17.2542 10.3357 17.3113 10.2936C17.3415 10.49 17.3301 10.8171 17.2852 11.0611C17.1842 10.9819 17.1656 10.6485 17.1384 10.4546ZM17.1384 11.061C17.1771 10.997 17.2152 10.9332 17.253 10.8692C17.2304 10.9318 17.2078 10.9945 17.1864 11.0575C17.1703 11.0588 17.1545 11.0602 17.1384 11.061ZM18.2448 10.4873C18.2559 10.4866 18.2664 10.486 18.2767 10.4855C18.2858 11.2205 17.8312 11.3542 17.2333 11.6308C17.2016 11.6329 17.1701 11.635 17.1384 11.6368C17.2624 11.3802 17.3864 11.1235 17.5107 10.8669C17.7554 10.7403 18.0003 10.614 18.2448 10.4873ZM17.1203 9.05117C17.1264 9.07008 17.1325 9.08914 17.1384 9.10817C17.1227 9.11959 17.1066 9.1309 17.0909 9.1422C17.0433 9.07819 16.996 9.0143 16.9487 8.9503C17.0061 8.98397 17.0634 9.01764 17.1203 9.05117ZM16.9487 9.37034C16.9512 9.35921 16.952 9.34776 16.9539 9.33689C16.9677 9.3359 16.9817 9.33492 16.9957 9.3341C17.0435 9.39826 17.0909 9.46212 17.1384 9.52598C17.0287 9.47342 17.0105 9.46073 16.9487 9.37034ZM17.1384 9.86078C17.053 9.94104 16.9674 10.0214 16.8822 10.1017C16.6988 9.83659 16.5159 9.57115 16.3328 9.30607C16.0958 9.10054 15.8577 8.89476 15.6204 8.6891C15.6732 8.64828 15.7254 8.60734 15.7775 8.56651C16.1222 8.71541 16.7255 8.99899 16.8469 9.35282C16.8865 9.46786 16.7504 9.56301 16.8431 9.65933C16.953 9.7733 17.0632 9.69199 17.1384 9.86078ZM15.537 11.0611C15.5559 11.0688 15.5756 11.0764 15.5948 11.0839C15.6033 11.2682 15.6118 11.4526 15.6204 11.6368C15.5907 11.63 15.5616 11.6231 15.5316 11.6163C15.4483 11.5549 15.3899 11.2691 15.4662 11.145C15.4896 11.1171 15.5134 11.0892 15.537 11.0611ZM15.1167 12.023C15.1369 12.0222 15.1578 12.0214 15.1779 12.0206C15.1988 12.0706 15.2202 12.1206 15.241 12.1707C15.2088 12.1834 15.176 12.1961 15.1433 12.2087C15.1127 12.21 15.0824 12.2112 15.0512 12.2125C15.0733 12.1494 15.0952 12.0862 15.1167 12.023ZM14.9432 15.0909C14.9161 14.9978 14.8886 14.9043 14.8615 14.8109C14.9784 14.777 15.095 14.7432 15.2122 14.7091C15.2215 14.7087 15.2315 14.7079 15.241 14.7071C15.2397 14.7158 15.2387 14.7247 15.238 14.7334C15.1398 14.8528 15.0415 14.9717 14.9432 15.0909ZM14.6717 14.3233C14.7062 14.211 14.7316 14.1938 14.7942 14.1314C14.8118 14.1382 14.8295 14.1449 14.847 14.1516C14.8518 14.1681 14.8566 14.1847 14.8615 14.2013C14.8225 14.2394 14.7836 14.2775 14.7448 14.3159C14.7202 14.3182 14.696 14.3209 14.6717 14.3233ZM14.761 14.5152C14.7313 14.4826 14.7015 14.4499 14.6717 14.4174C14.7348 14.386 14.7985 14.3547 14.8615 14.3233C14.8452 14.3863 14.8286 14.4492 14.8121 14.5121C14.7951 14.5132 14.778 14.5142 14.761 14.5152ZM14.561 15.3861C14.5346 15.3644 14.5082 15.3429 14.482 15.3211C14.5013 15.3199 14.5213 15.3186 14.5406 15.3175C14.6383 15.2419 14.7357 15.1664 14.8331 15.0909C14.8424 15.1679 14.8522 15.2449 14.8615 15.3218C14.7871 15.3726 14.712 15.4239 14.6371 15.4747C14.6118 15.4452 14.5867 15.4157 14.561 15.3861ZM14.5754 17.5834C14.1188 17.6029 13.8461 17.4867 13.4723 17.454C13.3301 17.1734 13.188 16.8922 13.0459 16.6116C13.0186 16.5834 12.9912 16.5552 12.964 16.5271C13.681 16.4422 14.1317 16.097 14.6628 15.8585C14.8509 16.0364 15.2767 16.9456 14.9016 17.348C14.8125 17.4857 14.7116 17.4993 14.5754 17.5834ZM12.6139 16.6371C12.6709 16.6337 12.7283 16.6298 12.7858 16.6261C13.0442 16.7988 13.2202 17.1088 13.3435 17.3937C13.0906 17.321 12.8373 17.2477 12.5845 17.1747C12.6408 16.9829 12.6646 16.788 12.6139 16.6371ZM12.0688 15.9127C12.3537 15.8304 12.6383 15.7488 12.9232 15.6666C13.3713 15.7104 13.8194 15.7543 14.2678 15.7978C14.2759 15.8206 14.2842 15.843 14.2922 15.8654C13.8917 16.0451 13.4364 16.1966 12.9771 16.4288C12.4797 16.4682 12.36 16.283 12.0153 16.1611C12.0334 16.0781 12.0513 15.9956 12.0688 15.9127ZM12.0153 16.8168C12.0211 16.7615 12.0266 16.706 12.0324 16.6505C12.1413 16.6424 12.2502 16.6341 12.3596 16.6261C12.3864 16.7708 12.4151 16.8516 12.3747 17.0099C12.2549 16.9456 12.1352 16.8811 12.0153 16.8168ZM11.6358 17.1175C11.6781 17.0938 11.7207 17.0706 11.7629 17.0471C11.9188 16.9441 12.0363 17.0817 12.2051 17.1357C12.1826 17.1575 12.1602 17.1796 12.1379 17.2018C11.9704 17.1738 11.8031 17.1455 11.6358 17.1175ZM12.0042 16.818C11.963 16.7994 11.9219 16.7808 11.8808 16.7618C11.8623 16.7169 11.8439 16.6712 11.8256 16.6261C11.8887 16.6301 11.952 16.634 12.0153 16.6379C12.0117 16.698 12.0078 16.7579 12.0042 16.818ZM11.4461 16.818C11.5094 16.8723 11.5725 16.9263 11.6358 16.9802C11.6354 17.0808 11.6268 17.0693 11.6041 17.2018C11.5515 17.0737 11.499 16.946 11.4461 16.818ZM10.9539 16.0985C11.132 16.0446 11.3696 16.0564 11.6358 16.0504C11.5531 16.1144 11.4709 16.1783 11.388 16.2423C11.2176 16.2256 11.0472 16.209 10.8768 16.1922C10.9026 16.161 10.9283 16.1297 10.9539 16.0985ZM10.4974 6.48192C10.8496 6.14594 11.7337 6.24636 11.9553 6.45967C11.9753 6.45806 11.9955 6.45617 12.0153 6.45442C11.7204 6.72842 11.264 6.76013 10.9837 7.03135C10.764 6.88526 10.5823 6.79171 10.4974 6.48192ZM12.4354 7.03135C12.4852 7.0877 12.5348 7.14403 12.5845 7.20026C12.4516 7.20809 12.3119 7.21598 12.1728 7.22765C11.8587 7.25426 11.5486 7.30109 11.3318 7.41322C11.3226 7.41398 11.3132 7.41451 11.3039 7.41516C11.2879 7.39056 11.2721 7.36608 11.2563 7.3417C11.5221 7.20691 11.812 7.0985 12.1728 7.05295C12.2477 7.04354 12.3258 7.03682 12.4075 7.0333C12.417 7.03253 12.4262 7.03178 12.4354 7.03135ZM13.1746 6.07188C13.4198 6.31776 13.7864 6.46291 13.9128 6.83947C13.3976 6.6007 12.6064 6.60415 12.2051 6.22442C12.5592 6.29966 12.8598 6.27175 13.1746 6.07188ZM13.3435 7.41516C13.5785 7.44732 13.8132 7.4795 14.0474 7.5114C14.0661 7.5101 14.0844 7.5084 14.1025 7.50684C13.9146 7.66822 13.7265 7.82947 13.5381 7.99082C13.4496 7.81306 13.4281 7.5721 13.3435 7.41516ZM14.2478 8.23589C14.1993 8.22859 14.151 8.2211 14.1025 8.21381C14.1657 8.20346 14.229 8.1931 14.2922 8.18273C14.2774 8.20058 14.2625 8.21842 14.2478 8.23589ZM14.1025 7.77732C14.1602 7.72065 14.2186 7.66402 14.2763 7.60704C14.2818 7.67095 14.2867 7.73486 14.2922 7.79894C14.2505 7.78975 14.2086 7.7807 14.1664 7.77134C14.1453 7.7736 14.1236 7.77521 14.1025 7.77732ZM14.4468 14.1281C14.419 14.1293 14.391 14.1304 14.3636 14.1314C14.3393 14.1092 14.3159 14.0868 14.2922 14.0645C14.3105 14.0401 14.3286 14.0161 14.3472 13.992C14.3919 13.9745 14.4368 13.9571 14.482 13.9396C14.4699 14.0023 14.4585 14.0652 14.4468 14.1281ZM14.2956 14.4781C14.3186 14.4513 14.3422 14.4246 14.3654 14.3978C14.3674 14.3729 14.3694 14.348 14.3715 14.3233C14.4084 14.3819 14.4451 14.4403 14.482 14.4987C14.4185 14.5042 14.3553 14.5098 14.2922 14.5152C14.2934 14.503 14.2944 14.4905 14.2956 14.4781ZM14.2204 15.0909C14.1811 15.0439 14.142 14.997 14.1025 14.9501C14.2289 14.933 14.3555 14.916 14.482 14.899C14.4217 14.9612 14.3614 15.0232 14.3011 15.0853C14.2744 15.0872 14.2473 15.0888 14.2204 15.0909ZM14.2922 15.6666C14.166 15.6516 14.0396 15.6361 13.9128 15.6211C14.0017 15.5724 14.0912 15.5236 14.1803 15.4747C14.2176 15.5385 14.2552 15.6025 14.2922 15.6666ZM14.0261 15.1252C14.0516 15.1494 14.0769 15.1736 14.1025 15.1979C14.0109 15.2214 13.9197 15.2451 13.8277 15.2684C13.7295 15.2732 13.6314 15.2779 13.5333 15.2828C13.6697 15.2189 13.8067 15.1548 13.9435 15.0909C13.9713 15.1024 13.9988 15.1138 14.0261 15.1252ZM12.964 6.83947C13.1857 6.84547 13.42 6.90156 13.5333 7.03135C13.3803 7.01626 13.1056 7.04086 13.0362 6.9233C13.0127 6.89532 12.9882 6.86734 12.964 6.83947ZM13.1568 7.60704C13.2651 7.70155 13.3031 7.81286 13.2833 7.99082C13.1162 7.9333 13.1598 7.7508 13.1568 7.60704ZM13.3435 8.81669C13.3456 8.80579 13.3472 8.7949 13.3494 8.784C13.7274 8.70209 13.8093 8.83294 13.6369 8.9503C13.4882 8.93006 13.4202 8.87402 13.3435 8.81669ZM13.8295 13.7477C13.857 13.7545 13.8848 13.7614 13.9128 13.7684C13.9116 13.7773 13.9107 13.786 13.9098 13.7948C13.8473 13.843 13.7854 13.8913 13.723 13.9396C13.749 13.876 13.775 13.8128 13.8007 13.7497C13.8108 13.7489 13.8202 13.7483 13.8295 13.7477ZM13.725 9.0672C13.772 9.02832 13.8194 8.98932 13.8664 8.9503C13.8818 9.0144 13.8973 9.07824 13.9128 9.1422C13.8494 9.12842 13.7863 9.11448 13.723 9.10056C13.7235 9.0894 13.7244 9.07824 13.725 9.0672ZM14.2922 14.1985C14.1394 14.2382 13.9867 14.278 13.8338 14.3178C13.7969 14.3196 13.7599 14.3214 13.723 14.3233C13.7239 14.3169 13.725 14.3105 13.726 14.3041C13.8981 14.2706 14.0081 14.2137 14.1096 14.1314C14.163 14.1414 14.2168 14.1515 14.2702 14.1616C14.2775 14.1738 14.285 14.1862 14.2922 14.1985ZM13.965 13.7477C13.9476 13.7121 13.93 13.6767 13.9128 13.6414C13.9561 13.6129 13.9998 13.5842 14.0434 13.5558C14.0632 13.5666 14.0827 13.5769 14.1025 13.5874C14.0776 13.6391 14.0525 13.6905 14.0275 13.7421C14.0068 13.744 13.9857 13.7458 13.965 13.7477ZM12.7743 15.0746C12.8495 15.0163 12.925 14.9577 13.0001 14.899C13.2333 14.919 13.4661 14.939 13.6994 14.959C13.7074 14.9762 13.7151 14.9936 13.723 15.0107C13.5658 15.1014 13.4082 15.1922 13.2508 15.2828C13.0757 15.2542 12.9242 15.1764 12.8335 15.0705C12.8138 15.072 12.7941 15.0733 12.7743 15.0746ZM12.4229 15.0909C12.54 15.1549 12.6574 15.2188 12.7743 15.2828C12.5845 15.2496 12.3948 15.216 12.2051 15.1829C12.2779 15.1524 12.3503 15.1217 12.4229 15.0909ZM12.3948 15.4827C12.394 15.4985 12.3931 15.5136 12.3924 15.5292C12.3561 15.5491 12.3203 15.5691 12.2843 15.5892C12.2576 15.5923 12.2316 15.5961 12.2051 15.5992C12.2059 15.5838 12.2072 15.5685 12.208 15.5531C12.2907 15.4434 12.2766 15.48 12.3948 15.4827ZM11.5001 7.67294C11.4823 7.65372 11.4642 7.63464 11.4461 7.61568C11.6343 7.51291 11.9318 7.46448 12.2243 7.44077C12.4651 7.4213 12.7024 7.41835 12.8719 7.41516C12.9026 7.60697 12.9335 7.7989 12.964 7.99082C12.7165 7.96368 12.4793 7.93152 12.2243 7.91971C12.02 7.91049 11.8043 7.9141 11.5626 7.94393C11.5422 7.85347 11.5213 7.76316 11.5001 7.67294ZM11.7792 15.3732C11.7947 15.4003 11.81 15.4273 11.8256 15.4542C11.8107 15.5117 11.7958 15.5693 11.7809 15.6266C11.6062 15.64 11.4314 15.6532 11.2563 15.6666C11.3126 15.4952 11.3964 15.413 11.4865 15.2828C11.584 15.313 11.6815 15.3431 11.7792 15.3732ZM11.1323 14.7071C10.894 14.694 10.5668 14.5197 10.4974 14.3233C10.7505 14.3877 11.0032 14.452 11.2563 14.5163C11.2151 14.58 11.1738 14.6436 11.1323 14.7071ZM11.3988 14.697C11.3512 14.7005 11.304 14.7037 11.2563 14.7071C11.2578 14.6922 11.2599 14.6769 11.2613 14.6617C11.314 14.613 11.3662 14.5637 11.4189 14.5152C11.4121 14.576 11.4055 14.6364 11.3988 14.697ZM10.8768 7.67964C10.9539 7.6555 11.0306 7.63121 11.1077 7.60704C11.1572 7.66889 11.2069 7.73095 11.2563 7.79294C11.2042 7.79494 11.1526 7.79688 11.1005 7.79894C11.0261 7.75918 10.9513 7.71941 10.8768 7.67964ZM10.8739 15.9187C10.8619 15.9605 10.8501 16.0025 10.8381 16.0445C10.8196 16.046 10.8012 16.048 10.7829 16.0504C10.7511 15.9863 10.719 15.9221 10.6871 15.8585C10.7505 15.8649 10.8134 15.8714 10.8768 15.878C10.8759 15.8915 10.8747 15.905 10.8739 15.9187ZM10.9794 15.0909C11.1272 15.1206 11.2746 15.1506 11.422 15.1804C11.4301 15.2002 11.4381 15.2202 11.4461 15.2402C11.3314 15.3824 11.217 15.5243 11.1023 15.6666C10.9642 15.6463 10.8257 15.6259 10.6871 15.6056C10.7847 15.4341 10.8821 15.2624 10.9794 15.0909ZM14.2922 9.07716C14.3208 9.0353 14.3493 8.9935 14.3779 8.95162C14.3884 8.95118 14.3984 8.95075 14.409 8.9503C14.4885 8.97026 14.5676 8.99021 14.6471 9.01018C14.6552 9.02138 14.6636 9.03273 14.6717 9.04404C14.5829 9.07665 14.4941 9.10951 14.4051 9.1422C14.3676 9.1205 14.3298 9.09881 14.2922 9.07716ZM14.8053 8.45695C14.7609 8.4295 14.7169 8.40226 14.6717 8.37463C14.808 8.4245 14.7296 8.36868 14.8053 8.45695ZM14.7625 9.3341C14.7319 9.30845 14.7019 9.28279 14.6717 9.25706C14.735 9.21871 14.7981 9.18036 14.8615 9.1422C14.8284 9.20602 14.7953 9.2701 14.7625 9.3341ZM14.6717 10.6774C14.77 10.7016 14.8685 10.7259 14.9667 10.7503C15.046 10.7811 15.0442 10.7896 15.0512 10.8692C14.9244 10.8207 14.7124 10.7873 14.6717 10.6774ZM14.7005 10.1546C14.714 10.137 14.7279 10.1194 14.7414 10.1017C14.7816 10.1657 14.8215 10.2296 14.8615 10.2936C14.7983 10.2813 14.7349 10.2691 14.6717 10.2567C14.6814 10.2228 14.6909 10.1887 14.7005 10.1546ZM10.8572 16.4682C10.8637 16.4851 10.8702 16.5019 10.8768 16.5187C10.7916 16.5512 10.7063 16.5838 10.6212 16.6163C10.5801 16.6195 10.5387 16.6228 10.4974 16.6261C10.4982 16.6174 10.4988 16.6087 10.5 16.6C10.529 16.5545 10.5578 16.509 10.5872 16.4636C10.7082 16.4078 10.711 16.4442 10.8572 16.4682ZM10.3076 6.83947C10.4734 6.96182 10.5159 7.11377 10.4906 7.60704C10.3813 7.4675 10.3155 7.17271 10.3076 6.83947ZM10.4169 6.45569C10.412 6.50232 10.4072 6.54838 10.4025 6.5946C10.3708 6.5971 10.3391 6.59921 10.3076 6.60151C10.3435 6.55296 10.3803 6.50462 10.4169 6.45569ZM10.3076 6.64757C10.3028 6.69382 10.2986 6.74006 10.2932 6.78631C10.2351 6.77537 10.176 6.76464 10.1179 6.75389C10.1659 6.71974 10.2142 6.68518 10.2623 6.65102C10.2774 6.64968 10.2929 6.64872 10.3076 6.64757ZM10.3076 17.7774C10.3386 17.4517 10.3702 17.1261 10.4014 16.8005C10.6231 16.7422 10.845 16.6842 11.0666 16.6261C10.8335 16.9984 10.6006 17.3705 10.3674 17.7424C10.3475 17.7541 10.3275 17.766 10.3076 17.7774ZM10.3545 15.1517C10.3887 15.1313 10.4226 15.111 10.4565 15.0909C10.5497 15.2014 10.4662 15.3599 10.3788 15.4747C10.3052 15.4061 10.2973 15.3636 10.3166 15.2082C10.3292 15.1893 10.3421 15.1703 10.3545 15.1517ZM9.73838 15.0578C9.81142 14.9411 9.88433 14.8241 9.957 14.7071C10.074 14.7755 10.191 14.8439 10.3076 14.9124C10.1875 15.0999 10.0665 15.2871 9.94543 15.4747C9.83638 15.3782 9.76968 15.2358 9.73838 15.0578ZM9.73838 16.5605C9.85459 16.4544 9.97159 16.3484 10.0879 16.2423C10.1432 16.2473 10.1986 16.2522 10.2536 16.2571C10.2715 16.2869 10.2893 16.3168 10.3076 16.3468C10.2933 16.4398 10.2797 16.533 10.2657 16.6261C10.0898 16.6042 9.9143 16.5824 9.73838 16.5605ZM9.16915 16.3001C9.30804 16.2169 9.44753 16.1337 9.58644 16.0504C9.69264 16.0669 9.79826 16.0836 9.90425 16.1003C9.91198 16.1147 9.92028 16.1292 9.92813 16.144C9.81658 16.2407 9.70524 16.3374 9.5939 16.4342C9.42662 16.4168 9.31565 16.3725 9.22858 16.2967C9.20849 16.2978 9.18864 16.299 9.16915 16.3001ZM9.11378 15.9292C9.16486 15.9056 9.21564 15.882 9.26614 15.8585C9.28788 15.8632 9.30977 15.8678 9.33166 15.8725C9.34073 15.8831 9.34982 15.8937 9.3589 15.9041C9.21192 15.953 9.06396 16.0018 8.91684 16.0504C8.8746 16.0356 8.83234 16.0206 8.78966 16.006C8.89798 15.9803 9.00617 15.9548 9.11378 15.9292ZM8.59992 15.749C8.63707 15.6592 8.67444 15.5692 8.71135 15.4792C8.91938 15.4521 8.96815 15.5545 9.12372 15.6192C9.13848 15.6418 9.15386 15.6647 9.16915 15.6876C9.09175 15.7405 9.01423 15.7932 8.93681 15.8461C8.87393 15.8503 8.81117 15.8544 8.74819 15.8585C8.69887 15.8221 8.64967 15.7856 8.59992 15.749ZM8.22043 16.5366C8.3124 16.3746 8.40451 16.2124 8.49646 16.0504C8.67986 16.0501 8.70194 16.0654 8.77759 16.1621C8.81076 16.2181 8.78215 16.1881 8.70888 16.2006C8.703 16.2564 8.69777 16.312 8.69189 16.3681C8.78803 16.383 8.88379 16.3976 8.97941 16.4127C8.9231 16.5527 8.9141 16.5342 8.8284 16.6234C8.54597 16.6387 8.4181 16.5847 8.22043 16.5366ZM7.9008 15.8585C8.06157 15.907 8.22221 15.9552 8.38325 16.0034C8.3921 16.0224 8.40094 16.0417 8.41018 16.0608C8.30676 16.1853 8.20358 16.3098 8.10043 16.4342C7.95065 16.3851 7.80072 16.336 7.6512 16.2871C7.73441 16.1444 7.81774 16.0015 7.9008 15.8585ZM6.04214 15.3399C6.04423 15.3207 6.04613 15.3018 6.04834 15.2828C6.13802 15.3518 6.22793 15.4208 6.31747 15.4898C6.32532 15.5079 6.33307 15.5262 6.3408 15.5445C5.78062 15.9754 6.63701 17.3813 7.61165 16.4706C7.75138 16.5266 7.89074 16.5824 8.03069 16.6383C7.86941 16.9251 7.59266 17.038 7.30114 17.1996C6.60418 17.2576 5.62894 16.1227 6.04214 15.3399ZM6.69218 15.5364C6.69574 15.5798 6.69902 15.623 6.70248 15.6666C6.65066 15.6276 6.59916 15.589 6.54766 15.5501C6.53585 15.525 6.52438 15.4998 6.51276 15.4747C6.57259 15.4953 6.63233 15.5159 6.69218 15.5364ZM7.6512 16.3514C7.53566 16.4406 7.41989 16.53 7.30411 16.6188C6.62189 16.6905 6.34529 16.2192 6.32302 15.6399C6.36746 15.5864 6.41146 15.5329 6.45578 15.4791C6.47537 15.4777 6.49498 15.4761 6.51444 15.4747C6.85824 15.7449 7.16194 16.1568 7.62833 16.2931C7.63572 16.3126 7.64347 16.332 7.6512 16.3514ZM6.99 13.5558C6.92784 13.5105 6.92393 13.4888 6.89222 13.4129C6.93578 13.2491 6.97901 13.0848 7.02235 12.9208C7.07297 12.8767 7.12358 12.8322 7.17408 12.7882C7.20667 12.8359 7.23948 12.8833 7.27171 12.9308C7.1779 13.1392 7.08394 13.3474 6.99 13.5558ZM6.89222 13.7218C6.99204 13.4865 7.09183 13.2512 7.19186 13.016C7.2125 13.0038 7.2329 12.992 7.25318 12.9801C7.39087 13.2225 7.59048 13.3324 7.6512 13.6617C7.50106 13.8182 7.35065 13.9748 7.20048 14.1314C7.0607 14.0293 6.96324 13.896 6.89222 13.7218ZM7.46146 14.3085C7.58849 14.1854 7.71518 14.0625 7.84222 13.9396C7.90481 14.0674 7.96776 14.1953 8.03069 14.3233C7.84106 14.3181 7.65144 14.3134 7.46146 14.3085ZM8.41018 10.4311C8.23027 10.8143 7.99123 11.0745 7.84786 11.4449C7.78548 11.1082 8.16252 10.6241 8.2841 10.3267C8.30326 10.3156 8.32262 10.3048 8.34178 10.2936C8.36465 10.3394 8.3873 10.3852 8.41018 10.4311ZM8.41018 9.3757C8.69203 9.28846 8.88151 9.12876 9.08374 8.9503C9.1121 9.03574 9.14078 9.12132 9.16915 9.20674C9.08918 9.31303 9.00955 9.41971 8.92968 9.52598C8.75638 9.47602 8.58338 9.42578 8.41018 9.3757ZM9.3589 9.39504C9.3247 9.43862 9.2903 9.4824 9.2561 9.52598C9.22723 9.52123 9.19819 9.51624 9.16915 9.51139L9.17129 9.49061C9.22884 9.43836 9.28639 9.38633 9.34358 9.3341C9.34848 9.35446 9.3539 9.37476 9.3589 9.39504ZM9.20938 8.56846C9.21934 8.56771 9.22932 8.56716 9.2393 8.56651C9.2791 8.65034 9.3191 8.73415 9.3589 8.81777C9.34375 8.86214 9.32837 8.90623 9.31346 8.9503C9.14013 8.85967 9.14709 8.75225 9.20938 8.56846ZM9.17429 14.1314C9.23234 14.1731 9.29078 14.2147 9.34941 14.2566C9.28908 14.2301 9.2293 14.2038 9.16915 14.1779C9.1705 14.1622 9.1722 14.1466 9.17429 14.1314ZM9.17129 14.3233C9.2339 14.3504 9.2964 14.3774 9.3589 14.4046C9.35777 14.4121 9.35674 14.4199 9.35582 14.4278C9.22207 14.5209 9.08753 14.6141 8.95354 14.7071C8.83774 14.6557 8.82353 14.5524 8.78966 14.4391C8.79058 14.4313 8.79173 14.4235 8.79262 14.4158C8.91888 14.3848 9.04524 14.3541 9.17129 14.3233ZM8.60937 13.9396C8.66959 13.9637 8.72945 13.9877 8.78966 14.0119C8.75746 14.0307 8.72558 14.0495 8.69326 14.0681C8.66201 14.0718 8.63102 14.075 8.59992 14.0785C8.6028 14.0324 8.60602 13.986 8.60937 13.9396ZM8.59992 10.1017C8.8278 10.1663 8.7557 10.1233 8.76576 10.2936C8.66083 10.2327 8.65363 10.2035 8.59992 10.1017ZM8.59992 13.5295C8.60503 13.4742 8.61048 13.4193 8.61574 13.3639C8.7041 13.4251 8.73432 13.4617 8.78966 13.5558C8.72611 13.5468 8.66302 13.5381 8.59992 13.5295ZM8.97941 11.1331C8.90825 11.2247 8.9112 11.1992 8.78966 11.253C8.81738 11.1892 8.8451 11.1251 8.87299 11.0611C8.90856 11.0852 8.94415 11.109 8.97941 11.1331ZM8.97941 10.3615C8.93969 10.4028 8.90009 10.4441 8.86037 10.4855C8.7409 10.4179 8.79751 10.4448 8.85103 10.3208C8.8747 10.3118 8.89834 10.3026 8.92226 10.2936C8.94158 10.3162 8.96064 10.3388 8.97941 10.3615ZM8.96424 10.0349C8.90618 9.99324 8.84774 9.9516 8.78966 9.90977C8.92421 9.96101 8.89308 9.92974 8.96424 10.0349ZM8.59992 13.5558C8.66323 13.6062 8.7263 13.6565 8.78966 13.7066C8.69251 13.7041 8.64096 13.6834 8.59992 13.5558ZM9.16915 13.5485C9.14357 13.5509 9.1177 13.5534 9.0919 13.5558C9.06982 13.515 9.04764 13.4742 9.02554 13.4334C9.01013 13.4136 8.99462 13.3936 8.97941 13.3735C9.01363 13.3702 9.04783 13.367 9.08215 13.3639C9.11112 13.4255 9.13999 13.487 9.16915 13.5485ZM9.06441 9.99535C9.03614 9.96658 9.00749 9.93818 8.97941 9.90977C9.0629 9.96792 9.00749 9.91111 9.06441 9.99535ZM9.07632 13.1555C9.04418 13.0885 9.01166 13.0217 8.97941 12.9546C8.99302 12.8996 9.00682 12.8449 9.0205 12.7898C9.02839 12.7894 9.03638 12.7888 9.04447 12.7882C9.08585 12.916 9.12768 13.044 9.16915 13.172C9.13853 13.1665 9.10762 13.161 9.07632 13.1555ZM8.57911 15.3882C8.58614 15.3968 8.59298 15.4053 8.59992 15.4139C8.57726 15.4982 8.55461 15.5826 8.53195 15.6666C8.3923 15.611 8.2494 15.467 8.22043 15.2828C8.34022 15.3179 8.45962 15.3529 8.57911 15.3882ZM8.03069 15.6666C8.09412 15.7224 8.15702 15.7785 8.22043 15.8345C8.09906 15.7814 8.09162 15.7837 8.03069 15.6666ZM8.35819 13.9656C8.36558 14.021 8.37374 14.0764 8.38116 14.1314C8.32745 14.0674 8.27414 14.0036 8.22043 13.9396C8.26618 13.9482 8.3119 13.957 8.35819 13.9656ZM8.17066 14.8629C8.12388 14.7471 8.0771 14.6311 8.03069 14.5152C8.19631 14.579 8.3262 14.7686 8.41018 14.899C8.3305 14.8869 8.25058 14.875 8.17066 14.8629ZM8.31972 11.4464C8.33527 11.4458 8.3514 11.4454 8.36695 11.4449C8.32066 11.5089 8.27474 11.5728 8.22826 11.6368C8.20529 11.5895 8.23301 11.544 8.31022 11.4884C8.31307 11.4743 8.31648 11.4604 8.31972 11.4464ZM8.22043 13.0958C8.2079 13.1212 8.19509 13.1465 8.18239 13.172C8.14601 13.1438 8.10989 13.1158 8.07336 13.0876C8.05915 13.0572 8.04482 13.0266 8.03069 12.9963C8.08037 12.9909 8.12976 12.9855 8.17942 12.9801C8.19324 13.0186 8.20682 13.0572 8.22043 13.0958ZM6.89222 14.7071C7.27265 14.9541 7.91842 15.1829 8.03069 15.6666C7.58986 15.4575 7.16011 15.0812 6.89222 14.7071ZM7.87826 14.5218C7.92905 14.5836 7.98002 14.6453 8.03069 14.7071C7.90428 14.6431 7.77763 14.5792 7.6512 14.5152C7.72697 14.5174 7.80283 14.5196 7.87826 14.5218ZM9.26772 15.0909C9.1717 14.9946 9.07555 14.8981 8.97941 14.8017C9.14734 14.6422 9.31574 14.483 9.48367 14.3233C9.50537 14.4988 9.52706 14.6742 9.54864 14.8496C9.45504 14.93 9.36144 15.0106 9.26772 15.0909ZM9.54864 15.4116C9.56565 15.3699 9.58214 15.3282 9.59904 15.2865C9.62124 15.2852 9.64332 15.2839 9.66593 15.2828C9.69026 15.3468 9.71419 15.4107 9.73838 15.4747C9.67524 15.4536 9.61181 15.4327 9.54864 15.4116ZM9.80441 14.7071C9.7824 14.6432 9.76058 14.5794 9.73838 14.5152C9.78468 14.5238 9.83078 14.5321 9.87595 14.5407C9.85243 14.5961 9.82833 14.6517 9.80441 14.7071ZM9.54864 8.24544C9.54924 8.23987 9.54974 8.23433 9.55056 8.22862C9.6133 8.21333 9.67565 8.19809 9.73838 8.18273C9.69463 8.24669 9.65081 8.31065 9.60718 8.37463C9.58769 8.33158 9.56813 8.28847 9.54864 8.24544ZM7.63565 12.2125C7.5774 12.0844 7.51934 11.9566 7.46146 11.8287C7.68442 11.8775 7.64875 12.0359 7.63565 12.2125ZM7.17072 12.4044C7.00872 12.2919 6.90494 12.0688 6.89222 11.8287C7.22506 11.9074 7.20708 12.0381 7.27171 12.3411C7.23802 12.3622 7.20444 12.3834 7.17072 12.4044ZM6.97462 11.4031C6.73274 11.175 7.08533 10.2612 7.24037 10.0512C7.3219 9.9479 7.42522 9.94975 7.56144 9.90977C7.59149 9.91745 7.62103 9.92537 7.6512 9.93305C7.42325 10.3359 7.26907 10.884 7.21464 11.4449C7.1346 11.4308 7.0548 11.417 6.97462 11.4031ZM6.62054 14.5152C6.65926 14.58 6.69794 14.6448 6.73663 14.7099C6.70226 14.7904 6.66749 14.8707 6.63281 14.9512C6.61274 14.9723 6.59302 14.9933 6.57319 15.0143C6.65784 15.0263 6.6768 14.9533 6.80438 14.85C7.04986 15.2484 7.42618 15.6285 7.84094 15.8451C7.76551 15.9774 7.68965 16.1098 7.61431 16.2423C7.38564 16.0954 7.15771 15.9487 6.92911 15.8018C6.85054 15.6569 6.95892 15.4905 6.83278 15.4017C6.71885 15.3213 6.57146 15.4376 6.45538 15.4027C6.34807 15.3044 6.24055 15.2061 6.13327 15.108C6.22766 14.8972 6.31882 14.6904 6.50633 14.5826C6.54458 14.5601 6.58241 14.5375 6.62054 14.5152ZM5.96441 12.3993C5.98843 12.2106 6.02942 12.0156 6.07579 11.831C6.08448 11.8303 6.09298 11.8296 6.10166 11.8287C6.13459 12.019 6.16752 12.2092 6.20064 12.3993C6.21792 12.4988 6.23491 12.5982 6.25219 12.6975C6.40219 13.1114 6.55229 13.5256 6.70248 13.9396C6.34236 13.7429 6.11906 13.2885 6.15106 12.6774C6.06451 12.8747 6.13656 13.1848 6.16502 13.3584C5.94319 13.1713 5.91473 12.799 5.96441 12.3993ZM5.63549 12.5963C5.60263 12.5288 5.58122 12.4538 5.57117 12.3651C5.56046 12.274 5.56198 12.1685 5.57462 12.0424C5.58533 12.0193 5.59625 11.9965 5.60717 11.9736C5.65615 11.9254 5.70502 11.8771 5.75378 11.8287C5.72621 12.0075 5.69863 12.1864 5.67096 12.3651C5.65927 12.4423 5.64727 12.5191 5.63549 12.5963ZM18.8461 14.5152C18.7197 14.4667 18.5933 14.418 18.4666 14.3693C18.5894 14.3541 18.7121 14.3386 18.835 14.3233C18.8384 14.3873 18.8423 14.4513 18.8461 14.5152ZM8.80466 17.6385C8.83769 17.6207 8.87126 17.603 8.90429 17.5855C8.86651 17.6491 8.82763 17.7135 8.78966 17.7771C8.79461 17.731 8.79972 17.6846 8.80466 17.6385ZM5.94353 11.0611C5.88979 11.0558 5.83584 11.0507 5.78167 11.0454C5.58089 10.98 5.39138 10.7459 5.3743 10.4855C5.68243 10.5131 5.78659 10.6586 5.93892 10.8364C5.94046 10.9112 5.94221 10.9861 5.94353 11.0611ZM5.92114 11.0452C5.94319 10.6311 5.6262 10.3726 5.21474 10.3837C5.28533 9.80162 5.79221 9.50436 6.24422 9.30886C6.27334 9.3067 6.30199 9.30456 6.3311 9.3024C6.25531 10.0327 6.31284 10.6617 6.03919 11.2934C5.83714 11.759 5.12093 11.7503 5.1601 12.4678C5.16101 12.4872 5.16252 12.5075 5.16482 12.5281C5.26694 13.4829 6.30787 13.677 6.45194 14.5167C4.90908 15.2992 6.78972 18.5894 8.01017 16.6568C8.2285 16.6882 8.42347 16.7872 8.6953 16.6917C8.82156 16.6221 8.84661 16.5655 8.89572 16.4202C9.04092 16.4952 9.18648 16.5701 9.33168 16.645C9.33931 16.6632 9.34694 16.6818 9.35479 16.7003C8.95486 17.0095 8.67312 17.4338 8.24407 17.7243C8.25749 17.685 8.27124 17.6455 8.28497 17.6068C8.24731 17.6002 8.2099 17.5933 8.17224 17.5866C8.15213 17.5977 8.13156 17.6088 8.11135 17.6198C8.09263 17.7065 8.07439 17.7938 8.05543 17.8805C8.30033 18.13 9.04346 17.227 9.2611 17.0496C9.13786 17.479 8.83404 17.6997 8.66527 18.0925C8.68236 18.1104 8.69993 18.1283 8.71723 18.1459C9.03768 17.9168 9.43068 17.2688 9.49042 16.7757C9.65016 16.8021 9.81017 16.8283 9.97027 16.8548C9.36864 17.6664 7.82338 19.4509 7.01117 19.9271C7.13419 19.5398 7.33171 19.2441 7.43083 18.9259C7.41132 18.9272 7.39202 18.9284 7.37306 18.93C7.35574 18.9121 7.33831 18.8943 7.32086 18.8767C7.12344 19.2651 6.79733 19.5374 6.73922 20.0612C6.78048 20.1251 6.82447 20.1596 6.86885 20.1943C7.83504 20.0335 9.44779 17.6115 10.2187 16.9503C10.0102 19.0392 8.88787 19.3654 7.9145 20.6311C8.7989 20.191 9.33562 19.068 10.0927 18.444C10.009 19.3174 9.80081 21.2689 9.27658 21.6153C9.30547 21.6129 9.33434 21.6112 9.36346 21.609C9.95064 21.2446 9.98518 19.7461 10.1808 18.98C10.2086 18.7112 10.2365 18.4429 10.2643 18.1748C10.5439 17.7827 10.8237 17.3909 11.1034 16.9995C11.1238 16.9885 11.1439 16.9773 11.1643 16.9666C11.2581 17.2604 11.6829 17.5791 12.1433 17.4936C12.2535 17.4474 12.3635 17.4014 12.4731 17.3553C12.7499 17.4585 13.0261 17.5616 13.3022 17.6649C13.411 18.8543 13.3692 19.5212 12.6144 20.4271C13.3856 20.0339 13.669 18.5182 13.4123 17.714C15.2058 17.9212 15.134 17.3173 14.7935 16.014C14.8987 16.0154 15.0039 16.0173 15.1091 16.0192C15.0512 15.932 14.8938 15.9968 14.7736 15.9299C14.7191 15.8948 14.7299 15.9014 14.6958 15.8498C15.1225 15.3698 16.1491 15.8466 15.9341 16.6432C16.2288 15.9823 15.5766 15.3954 14.9481 15.6314C15.2165 15.3141 15.5416 15.0534 15.7115 14.6332C15.7321 14.6221 15.7521 14.6111 15.7726 14.6002C16.2644 15.1156 16.7568 15.6314 17.2488 16.1467C17.2775 16.1447 17.3067 16.1424 17.3357 16.1404C17.3581 16.1102 17.3802 16.08 17.4022 16.0497C16.9337 15.4947 16.4644 14.939 15.9957 14.3839C16.0458 14.361 16.096 14.3384 16.1467 14.3156C16.2279 14.2386 16.3172 14.2131 16.4067 14.2252C16.3805 14.2122 16.3554 14.1996 16.3319 14.1878C17.0862 14.2635 18.0486 14.8902 18.8352 14.6882C18.9079 14.5625 18.911 14.4942 18.8675 14.3719C19.7053 14.393 21.2126 14.1133 21.6922 13.707C20.4036 13.9773 18.951 14.0689 17.7671 13.9107C17.4171 13.8701 17.0677 13.8291 16.718 13.7884C16.6986 13.7898 16.6792 13.7911 16.6596 13.7926C16.7536 13.6241 16.8476 13.4552 16.9417 13.2865C17.8068 13.2707 20.0739 13.2488 20.5326 12.7079C20.4988 12.6629 20.4651 12.6176 20.4316 12.5726C20.2997 12.5538 20.1675 12.535 20.0358 12.516C20.0017 12.5663 19.997 12.6142 19.9916 12.6623C20.0961 12.6735 20.2 12.6847 20.304 12.6962C19.6245 12.867 17.7316 13.2274 17.1133 13.0169C17.0483 12.9384 17.0964 12.665 17.0992 12.468C17.1002 12.429 17.099 12.3928 17.0951 12.3619C17.9833 12.097 18.6429 11.5012 18.9133 10.6009C19.068 10.0862 18.9654 9.4093 19.2996 9.0883C19.5131 9.1069 19.5561 9.19661 19.7128 9.25769C19.6298 9.14268 19.5116 9.07898 19.3635 9.0265C19.2704 9.09043 19.1779 9.15437 19.0853 9.21821C18.831 9.31637 18.5647 9.05954 18.1336 9.25982C17.7834 8.96102 17.5856 8.48842 17.1126 8.3077C17.0964 8.28026 17.0798 8.25295 17.0638 8.22564C17.2554 8.04002 17.4465 7.85477 17.6381 7.66942C17.4497 7.82614 17.2584 8.01151 17.0668 8.19677C16.939 8.13962 16.8106 8.08236 16.6822 8.02548C16.6751 8.00673 16.6673 7.9885 16.6596 7.96999C17.0975 7.66046 17.4864 7.54558 17.9853 7.644C18.0088 7.68967 18.0333 7.73549 18.0572 7.7813C18.0339 7.82126 18.0133 7.83199 17.9934 7.84308C17.9375 7.82818 17.8812 7.81339 17.8255 7.79822C17.8978 7.8407 17.9731 7.85417 18.0482 7.86766C18.0692 7.8469 18.0906 7.82638 18.1115 7.80586C18.1147 7.77701 18.1179 7.74838 18.1211 7.7195C18.0122 7.62264 17.9789 7.55299 17.7653 7.54594C17.7993 7.49573 17.8333 7.44574 17.8674 7.39577C17.6225 7.56336 17.1265 7.6081 16.8829 7.75373C17.0702 7.60666 17.2577 7.45958 17.4452 7.31263C17.4674 7.28256 17.4897 7.25227 17.5121 7.2222C17.1653 7.42834 16.8188 7.63481 16.4721 7.84118C16.2501 7.82566 16.014 7.72224 15.8943 7.59818C15.8751 7.59962 15.856 7.60106 15.8363 7.60248C16.2482 7.3248 16.6596 7.0471 17.0709 6.76951C17.0642 6.74136 17.0578 6.71333 17.0512 6.68518C16.5825 6.95762 16.1142 7.22995 15.6461 7.50252C15.4965 7.46578 15.3473 7.4293 15.198 7.39255C15.2117 7.25846 15.2258 7.12428 15.2395 6.99007C16.3121 6.14983 17.3849 5.30959 18.4573 4.46947C18.4763 4.46794 18.4957 4.46662 18.5151 4.4653C18.4995 4.42831 18.4843 4.39135 18.4692 4.35437C18.3497 4.29746 17.8602 4.69385 17.6752 4.81253C16.9629 5.26855 16.3329 5.83589 15.632 6.24766C15.9213 5.88108 16.4512 5.51609 16.5384 4.98192C16.4913 4.97597 16.4437 4.96987 16.3965 4.96392C16.3234 5.0263 16.2501 5.08891 16.1762 5.15143C16.2565 5.11694 16.3366 5.0826 16.4165 5.04802C16.2613 5.51774 15.5586 6.35834 15.1628 6.62472C15.1473 6.58762 15.1321 6.55099 15.1168 6.51389C15.3745 6.08066 15.6286 5.49914 15.5091 4.94364C15.4369 4.9014 15.3646 4.85918 15.2924 4.81682C15.2154 4.82268 15.1383 4.82839 15.061 4.83401C15.2094 4.89257 15.31 4.90702 15.4189 4.97882C15.4888 5.51738 15.2228 5.88144 15.0799 6.31685C15.0592 6.32782 15.0392 6.33878 15.0189 6.34999C14.9232 6.17417 14.9293 6.08899 14.7334 6.0569C14.7275 6.01934 14.722 5.98164 14.7164 5.94396C14.7608 5.88348 14.8055 5.82336 14.8501 5.763C14.8809 5.74152 14.9117 5.72018 14.9427 5.69894C14.9741 5.7575 14.9754 5.73686 14.9856 5.8385C15.0194 5.78854 15.0243 5.74058 15.029 5.69251C14.993 5.67629 14.9562 5.65994 14.9198 5.64372C14.823 5.74582 14.7264 5.84818 14.6298 5.95039C14.3871 5.78854 14.1208 5.6189 13.7805 5.55641C13.973 5.15642 14.5598 4.51445 14.2566 4.00843C13.8873 3.39305 12.6255 4.10256 12.1635 4.59067C12.1016 4.6565 12.0535 4.7183 12.0245 4.77245C12.054 4.74859 12.1017 4.71115 12.1635 4.66534C12.6193 4.32586 13.8339 3.51425 14.0969 4.16304C14.3729 4.5253 13.8443 5.22204 13.6999 5.50522C13.208 5.45549 12.6934 5.40847 12.1642 5.41898C11.6299 5.42983 11.0802 5.4989 10.5238 5.68224C10.2549 5.77087 9.11059 6.45473 9.06691 6.44614C8.89305 6.27842 8.71886 6.11023 8.54477 5.94228C8.18112 5.7599 7.81702 5.57738 7.45325 5.39501C7.45104 5.41409 7.44931 5.43317 7.44746 5.45249C7.4261 5.47313 7.40462 5.49365 7.38358 5.51429C7.8497 5.90794 8.31641 6.3018 8.78227 6.69557C8.71111 6.73898 8.63986 6.78216 8.56846 6.82558C7.99318 6.39043 7.5966 6.12622 6.74016 5.90424C6.69209 5.90782 6.6438 5.91127 6.59575 5.91485C7.09594 6.2585 7.59938 6.57341 8.10257 6.88834C8.13619 6.93341 8.1697 6.9785 8.20342 7.02372C7.84416 7.17509 7.69226 7.48834 7.38854 7.68312C6.91435 7.45697 6.47561 7.25275 5.90102 7.07906C5.88763 7.11818 5.87376 7.1573 5.86037 7.19645C6.21929 7.42678 6.57809 7.65725 6.93698 7.8877C6.95628 7.88626 6.97558 7.88484 6.99475 7.88352C6.93295 7.92598 6.87115 7.9687 6.80957 8.01127C6.72353 8.29934 6.55543 8.63299 6.41578 9.03926C5.8793 9.47501 5.18378 9.4489 5.07588 10.3368C4.90481 10.3837 4.78315 10.3985 4.6272 10.5126C4.62317 10.551 4.61935 10.5894 4.61532 10.6277C4.71317 10.7651 5.58485 11.1327 5.79336 11.1687C5.83622 11.1275 5.87873 11.0862 5.92114 11.0452ZM12.2871 4.90601C12.3138 4.9109 12.3398 4.91563 12.3663 4.92053C12.3308 4.91626 12.2952 4.91174 12.2597 4.9074C12.2414 4.90834 12.2233 4.90918 12.2051 4.91011C12.2889 4.75356 12.5362 4.71504 12.7743 4.73251C12.7688 4.76995 12.7635 4.80749 12.7576 4.84486C12.6027 4.85278 12.4475 4.86062 12.2926 4.8684C12.291 4.88098 12.2889 4.89341 12.2871 4.90601ZM12.6194 5.11243C12.6941 5.08786 12.7688 5.0634 12.8433 5.03894C12.9398 4.87858 12.995 4.70868 12.9456 4.5528C12.7158 4.50742 12.5828 4.56362 12.3671 4.65379C12.3281 4.71751 12.289 4.78159 12.2504 4.84543C12.2353 4.86998 12.22 4.89456 12.2051 4.91926C12.22 4.93596 12.2345 4.95053 12.2504 4.9637C12.3231 5.0239 12.4113 5.0447 12.5732 5.03141C12.6172 5.10689 12.5663 5.07338 12.486 5.09467C12.5304 5.10043 12.5748 5.10655 12.6194 5.11243ZM18.1378 6.83947C18.0576 6.85452 17.9774 6.86959 17.8974 6.88442C17.9468 6.88111 17.9963 6.8777 18.0454 6.87406C18.1019 6.89818 18.1583 6.92254 18.2144 6.94654C18.129 7.1029 18.0435 7.25902 17.958 7.41516C18.0897 7.25998 18.2212 7.1496 18.2768 6.91394C18.2303 6.88901 18.1841 6.86429 18.1378 6.83947ZM16.7589 14.3233C16.6989 14.2177 16.6338 14.1478 16.5692 14.1314C16.6269 14.1856 16.6933 14.2491 16.7589 14.3233ZM15.9999 16.6261C15.9368 16.6629 15.8733 16.6996 15.8102 16.7358C15.8587 16.7312 15.9073 16.7266 15.956 16.7222C15.9709 16.69 15.9856 16.6581 15.9999 16.6261ZM16.7589 14.3233C16.9517 14.5409 17.0966 14.9571 17.0547 15.2828C17.2735 14.8105 17.0238 14.516 16.7589 14.3233Z" fill="white"/>
</g>
<defs>
<clipPath id="clip0_4316_314">
<rect width="24" height="24" rx="5" fill="white"/>
</clipPath>
</defs>
</svg>
