<svg width="143" height="25" viewBox="0 0 143 25" fill="none" xmlns="http://www.w3.org/2000/svg">
<path d="M57.5142 11.4983C57.5142 7.64871 55.6941 2.67677 48.224 2.67677H38.0859V20.1684H48.224C55.955 20.1684 57.5142 14.9719 57.5142 11.4983ZM45.1588 15.7969V6.81818H46.5876C48.301 6.81818 50.0737 7.37935 50.0737 11.4141C50.0737 15.3423 48.1706 15.8137 46.5876 15.8137L45.1588 15.7969ZM65.6306 15.4209C65.6306 13.1762 67.2195 11.9473 69.1878 11.9473C69.6513 11.9612 70.1113 12.029 70.5573 12.1493V6.90236C70.2038 6.82264 69.8418 6.78122 69.4783 6.7789C67.261 6.7789 65.8381 8.40067 65.3282 10.0505H65.2156V7.07632H59.0023V20.1684H65.6306V15.4209ZM76.3022 15.3591H70.587V20.202H76.3437L76.3022 15.3591ZM87.4482 20.1684L90.3532 8.77666H90.5311L93.5903 20.1684H101.197L105.631 2.72727H99.2937L97.0527 13.8721H96.9578L94.0883 2.72727H87.3059L84.3771 13.8721H84.2704L82.0531 2.72727H75.4248L79.7231 20.1684H87.4482ZM122.967 16.0438H113.772V13.3221H122.433V9.3266H113.772V6.80135H122.825V2.67677H106.693V20.1684H123.008L122.967 16.0438ZM142.959 15.4826C142.959 12.7329 140.634 11.5825 138.808 11.33V11.2233C139.843 11.0993 140.794 10.6231 141.485 9.88373C142.175 9.14434 142.558 8.1923 142.561 7.20539C142.561 5.578 141.506 2.65432 135.725 2.65432H124.627V20.1684H135.37C137.723 20.1684 143 19.9214 143 15.4994L142.959 15.4826ZM131.332 6.22335H133.152C135.103 6.22335 135.66 7.17733 135.66 7.90685C135.66 8.40629 135.423 9.59035 132.992 9.59035H131.332V6.22335ZM131.332 16.6218V13.0471H132.969C133.562 13.0471 135.773 13.0471 135.773 14.8204C135.773 15.4489 135.393 16.6218 133.123 16.6218H131.332ZM12.2072 7.70483L17.6082 4.8541L23.0389 7.72727C23.1733 7.37828 23.2435 7.01006 23.2464 6.63861C23.2464 4.39394 20.7267 2.55331 17.6319 2.55331C14.5371 2.55331 12.0175 4.38272 12.0175 6.63861C12.0202 7.00132 12.0843 7.36127 12.2072 7.70483ZM27.272 10.78L30.681 11.56L29.9636 13.6981L35.1571 11.0662L26.7799 8.72615L27.272 10.78ZM23.2464 25L31.3924 15.651L27.0467 13.1706L23.2464 25ZM22.695 3.27722L24.2543 4.83165L28.4399 0H22.5112L24.7226 1.29068L22.695 3.27722ZM26.2937 7.4018L30.0051 6.69473L30.7699 9.24242L32.6137 3.70932L25.191 5.95399L26.2937 7.4018ZM3.76472 15.651L11.9107 25L8.1223 13.1706L3.76472 15.651ZM4.47616 11.56L7.88516 10.78L8.37131 8.72615L0 11.0662L5.19353 13.6981L4.47616 11.56ZM5.15796 6.69473L8.86339 7.4018L9.97205 5.95399L2.54933 3.70932L4.39316 9.24242L5.15796 6.69473ZM12.468 3.27722L10.4226 1.29068L12.6815 0H6.75278L10.9384 4.85971L12.468 3.27722ZM14.6854 8.0303L15.4265 10.6622H15.4679L16.4699 7.85634H18.7939L19.8552 10.6622H19.8908L20.4836 8.06958L17.6082 6.47587L14.6854 8.0303ZM25.44 10.7239L22.4104 9.0853L21.3196 12.2222H18.6161L17.6082 9.34343H17.5726L16.547 12.2222H13.8316L12.7348 9.09091L9.71119 10.7183C9.71119 10.7183 8.60845 14.4164 12.8119 17.4523C13.8794 18.3114 15.0789 19.0115 16.3691 19.5286L16.1853 19.0011H18.9659L18.7821 19.5623C20.0771 19.0514 21.2778 18.3487 22.3393 17.4804C26.5012 14.3827 25.4578 10.7239 25.4578 10.7239H25.44ZM19.2742 18.0976H15.8652L15.4976 17.0427H19.6477L19.2742 18.0976ZM19.9797 16.1392H15.2071L14.8395 15.0842H20.3473L19.9797 16.1392ZM20.6615 14.1807H14.5134L14.1459 13.1257H21.0231L20.6615 14.1807Z" fill="white"/>
</svg>
