<svg width="24" height="24" viewBox="0 0 24 24" fill="none" xmlns="http://www.w3.org/2000/svg">
<g clip-path="url(#clip0_4316_323)">
<path d="M24 20.4879C24 22.4277 22.4356 24 20.5059 24L3.49414 24C1.56436 24 0 22.4277 0 20.4879L0 3.51206C0 1.57238 1.56436 0 3.49414 0L20.5059 0C22.4356 0 24 1.57238 24 3.51206L24 20.4879Z" fill="#FAAB62"/>
<path d="M23.8767 20.4008C23.8767 22.3205 22.3284 23.8767 20.4185 23.8767L3.58147 23.8767C1.67154 23.8767 0.123265 22.3205 0.123265 20.4008L0.123265 3.59922C0.123265 1.67949 1.6716 0.123278 3.58147 0.123278L20.4185 0.123278C22.3284 0.123278 23.8767 1.67955 23.8767 3.59922L23.8767 20.4008Z" fill="#F7931E"/>
<path d="M11.9866 3.58689C9.60804 3.58689 7.67986 5.52502 7.67986 7.91575C7.67986 10.3065 9.60804 12.2448 11.9866 12.2448C14.3652 12.2448 16.2934 10.3065 16.2934 7.91575C16.2934 5.52502 14.3652 3.58689 11.9866 3.58689ZM11.9866 9.70533C11.0034 9.70533 10.2063 8.90408 10.2063 7.91581C10.2063 6.92754 11.0034 6.12636 11.9866 6.12636C12.9699 6.12636 13.7669 6.92754 13.7669 7.91581C13.7669 8.90408 12.9699 9.70533 11.9866 9.70533Z" fill="white"/>
<path d="M13.5071 15.6893C15.2313 15.3362 16.2645 14.5155 16.3192 14.4715C16.8237 14.0648 16.9047 13.324 16.5001 12.8168C16.0956 12.3097 15.3586 12.2282 14.854 12.6349C14.8433 12.6436 13.7413 13.4932 11.9281 13.4945C10.115 13.4932 8.98974 12.6436 8.97908 12.6349C8.47443 12.2282 7.73749 12.3097 7.33293 12.8168C6.92831 13.324 7.00936 14.0648 7.51388 14.4715C7.56929 14.5161 8.64515 15.3582 10.4176 15.703L7.94735 18.2979C7.49841 18.7658 7.51191 19.5109 7.97748 19.9622C8.20472 20.1824 8.4976 20.2919 8.79023 20.2919C9.09704 20.2919 9.40354 20.1714 9.63331 19.9318L11.9282 17.4746L14.4549 19.9477C14.9127 20.4072 15.654 20.4064 16.111 19.9464C16.5679 19.4864 16.5673 18.7412 16.1097 18.2819L13.5071 15.6893Z" fill="white"/>
</g>
<defs>
<clipPath id="clip0_4316_323">
<rect width="24" height="24" fill="white"/>
</clipPath>
</defs>
</svg>
