<svg width="24" height="24" viewBox="0 0 24 24" fill="none" xmlns="http://www.w3.org/2000/svg">
<path d="M0 6C0 2.68629 2.68629 0 6 0L18 0C21.3137 0 24 2.68629 24 6L24 18C24 21.3137 21.3137 24 18 24L6 24C2.68629 24 0 21.3137 0 18L0 6Z" fill="#172037"/>
<path d="M15.4135 13.6242C15.5161 13.6008 15.5916 13.5834 15.6671 13.5661C16.523 13.3734 17.0827 12.8728 17.2472 11.9948C17.4146 11.0995 17.4085 10.1939 17.2838 9.29622C17.1619 8.41544 16.6566 7.82435 15.8002 7.55716C15.4177 7.4381 15.0178 7.41935 14.6208 7.41888C11.9166 7.41513 9.21191 7.41794 6.50769 7.41419C6.35956 7.41372 6.31081 7.44653 6.31128 7.60544C6.31644 10.5515 6.31597 13.4976 6.31175 16.4437C6.31128 16.589 6.34972 16.6256 6.49269 16.6237C7.13206 16.6158 7.77097 16.6148 8.40988 16.6242C8.57206 16.627 8.618 16.5867 8.61613 16.4212C8.60722 15.5718 8.62128 14.722 8.60581 13.8726C8.60206 13.6551 8.6705 13.6214 8.86691 13.6228C10.1836 13.6317 11.5008 13.6303 12.818 13.6237C12.9774 13.6228 13.0688 13.6725 13.1569 13.8056C13.7452 14.6939 14.3457 15.5747 14.9353 16.462C15.0132 16.5792 15.0943 16.6251 15.2358 16.6237C15.9605 16.6162 16.6857 16.6209 17.4103 16.619C17.4671 16.619 17.5318 16.6411 17.5964 16.5815C16.8736 15.6028 16.1546 14.6283 15.4135 13.6242ZM15.0221 11.1543C14.9897 11.3892 14.8552 11.5265 14.6161 11.5687C14.4769 11.5936 14.3386 11.6025 14.1985 11.6025C12.4078 11.6029 10.6177 11.6001 8.82706 11.6067C8.65831 11.6072 8.603 11.5753 8.60722 11.3939C8.62081 10.8178 8.62222 10.2412 8.60675 9.6656C8.60113 9.46872 8.67331 9.44341 8.84253 9.44481C9.76128 9.45231 10.6796 9.44856 11.5983 9.44856C12.4468 9.44856 13.2952 9.44716 14.1436 9.4495C14.2833 9.44997 14.4253 9.45231 14.5608 9.47903C14.8871 9.54278 15.0089 9.65997 15.0343 9.99044C15.0643 10.3772 15.0755 10.7672 15.0221 11.1543Z" fill="white"/>
<path d="M18.0375 5.18068C18.6919 5.18443 19.2136 5.70662 19.2075 6.35115C19.2014 6.99522 18.6689 7.53053 18.0333 7.53147C17.3883 7.5324 16.8366 6.976 16.8478 6.33568C16.8595 5.68693 17.385 5.17693 18.0375 5.18068Z" fill="#E62244"/>
</svg>
