<svg width="24" height="24" viewBox="0 0 24 24" fill="none" xmlns="http://www.w3.org/2000/svg">
<g clip-path="url(#clip0_4316_308)">
<path d="M0 5C0 2.23858 2.23858 0 5 0L19 0C21.7614 0 24 2.23858 24 5L24 19C24 21.7614 21.7614 24 19 24L5 24C2.23858 24 0 21.7614 0 19L0 5Z" fill="#0077FF"/>
<path d="M12.5895 16.2C8.07958 16.2 5.50718 13.0468 5.4 7.8H7.65909C7.73329 11.6511 9.39875 13.2823 10.7179 13.6186V7.8H12.8451V11.1213C14.1478 10.9784 15.5164 9.46486 15.9781 7.8H18.1053C17.9313 8.66345 17.5845 9.48099 17.0866 10.2015C16.5886 10.922 15.9502 11.53 15.2114 11.9874C16.0361 12.4053 16.7646 12.9969 17.3487 13.723C17.9328 14.4492 18.3593 15.2934 18.6 16.2H16.2585C16.0424 15.4126 15.6032 14.7077 14.996 14.1737C14.3888 13.6397 13.6406 13.3004 12.8451 13.1982V16.2H12.5895Z" fill="white"/>
</g>
<defs>
<clipPath id="clip0_4316_308">
<rect width="24" height="24" rx="5" fill="white"/>
</clipPath>
</defs>
</svg>
