<svg width="24" height="24" viewBox="0 0 24 24" fill="none" xmlns="http://www.w3.org/2000/svg">
<g clip-path="url(#clip0_4316_317)">
<path d="M23.5221 6.1859C23.3864 5.67531 23.119 5.20932 22.7466 4.83455C22.3743 4.45979 21.91 4.1894 21.4003 4.05044C19.5239 3.5459 12.0239 3.5459 12.0239 3.5459C12.0239 3.5459 4.52393 3.5459 2.64756 4.05044C2.13786 4.1894 1.67358 4.45979 1.30121 4.83455C0.928842 5.20932 0.661431 5.67531 0.525744 6.1859C0.0239258 8.07044 0.0239258 12.0004 0.0239258 12.0004C0.0239258 12.0004 0.0239258 15.9304 0.525744 17.815C0.661431 18.3256 0.928842 18.7916 1.30121 19.1663C1.67358 19.5411 2.13786 19.8115 2.64756 19.9504C4.52393 20.455 12.0239 20.455 12.0239 20.455C12.0239 20.455 19.5239 20.455 21.4003 19.9504C21.91 19.8115 22.3743 19.5411 22.7466 19.1663C23.119 18.7916 23.3864 18.3256 23.5221 17.815C24.0239 15.9304 24.0239 12.0004 24.0239 12.0004C24.0239 12.0004 24.0239 8.07044 23.5221 6.1859Z" fill="#FF0302"/>
<path d="M9.56934 15.5689V8.43164L15.8421 12.0003L9.56934 15.5689Z" fill="#FEFEFE"/>
</g>
<defs>
<clipPath id="clip0_4316_317">
<rect width="24" height="24" fill="white"/>
</clipPath>
</defs>
</svg>
